#!OML:ASF X:\für Bonn\!DataBase\2005_08_10_Bjorn_Final\c3d\bjorn.ASF
:FULLY-SPECIFIED
:DEGREES
107
root -21.5584 18.0185 -18.3292 -354.751 362.313 -372.203
lowerback 3.33985 -1.05491 9.14741
upperback 10.9909 -1.85767 2.9154
thorax 9.73186 -0.275028 -2.05271
lowerneck -7.44962 3.98585 0.645901
upperneck -0.971615 5.31755 -3.08415
head 1.0504 2.61187 -0.8963
rclavicle 1.11319e-014 -6.40087e-014
rhumerus -38.0869 8.53734 -92.8978
rradius 74.2314
rwrist -15.6279
rhand -27.8198 21.6748
rfingers 7.12502
rthumb -1.21188 -8.3015
lclavicle 1.11319e-014 -6.40087e-014
lhumerus -36.2205 -34.7134 98.8941
lradius 83.6553
lwrist -0.355116
lhand -52.7891 -32.2071
lfingers 7.12502
lthumb -25.2637 -3.85986
rfemur -29.8176 -5.92314 27.0315
rtibia 50.9409
rfoot -19.0886 20.1566
rtoes -10.2035
lfemur 1.41517 2.30617 -7.565
ltibia 65.1526
lfoot 3.32635 13.8768
ltoes -19.3512
108
root -21.5372 17.9478 -18.124 -354.769 362.122 -372.311
lowerback 3.488 -0.80332 9.36057
upperback 10.9828 -1.51349 3.00919
thorax 9.67704 -0.0951671 -2.05139
lowerneck -8.23615 3.95012 0.780663
upperneck -0.62074 5.27236 -3.3299
head 1.31091 2.57386 -0.979896
rclavicle -1.8487e-014 -3.57812e-015
rhumerus -36.2745 8.207 -92.7937
rradius 74.619
rwrist -14.7073
rhand -27.5689 22.0381
rfingers 7.12502
rthumb -0.969556 -7.93949
lclavicle -1.8487e-014 -3.57812e-015
lhumerus -37.4838 -34.4364 99.6302
lradius 83.0703
lwrist -0.783701
lhand -52.7806 -33.0501
lfingers 7.12502
lthumb -25.2556 -4.70171
rfemur -29.3562 -5.53761 27.0125
rtibia 51.5351
rfoot -20.2724 20.18
rtoes -10.0662
lfemur -0.299776 2.89722 -7.31172
ltibia 68.1755
lfoot 2.17193 13.962
ltoes -18.292
109
root -21.5161 17.8852 -17.9174 -354.732 361.969 -372.376
lowerback 3.59007 -0.538902 9.55321
upperback 10.9197 -1.14952 3.06627
thorax 9.58854 0.0922098 -2.07956
lowerneck -8.66795 3.901 0.960596
upperneck -0.578595 5.19654 -3.57232
head 1.41273 2.52646 -1.08189
rclavicle 1.5704e-014 1.39149e-015
rhumerus -34.575 7.89086 -92.7599
rradius 74.9406
rwrist -13.7626
rhand -27.2393 22.159
rfingers 7.12502
rthumb -0.651223 -7.81973
lclavicle 1.5704e-014 1.39149e-015
lhumerus -38.8666 -33.8945 100.408
lradius 82.5083
lwrist -1.42915
lhand -52.825 -33.9737
lfingers 7.12502
lthumb -25.2982 -5.63133
rfemur -28.9292 -5.15195 26.9555
rtibia 52.0999
rfoot -21.4728 20.123
rtoes -10.2241
lfemur -2.20681 3.48205 -7.10465
ltibia 71.0715
lfoot 1.19906 13.4917
ltoes -18.1562
110
root -21.4949 17.8244 -17.7102 -354.729 361.841 -372.521
lowerback 3.6889 -0.262486 9.84644
upperback 10.8472 -0.770562 3.12395
thorax 9.49793 0.295083 -2.16237
lowerneck -8.89069 3.82243 1.12486
upperneck -0.682742 5.07741 -3.78027
head 1.42784 2.46158 -1.17778
rclavicle 1.49089e-015 -5.96354e-015
rhumerus -32.8509 7.74664 -92.8404
rradius 75.0969
rwrist -13.2592
rhand -27.1327 22.2646
rfingers 7.12502
rthumb -0.54826 -7.71449
lclavicle 1.49089e-015 -5.96354e-015
lhumerus -40.2756 -33.283 101.08
lradius 82.074
lwrist -2.03294
lhand -52.9078 -34.7414
lfingers 7.12502
lthumb -25.3774 -6.4102
rfemur -28.4326 -4.76351 26.9892
rtibia 52.6301
rfoot -22.753 19.9845
rtoes -10.6915
lfemur -4.16209 4.06032 -6.81253
ltibia 73.7568
lfoot 0.518863 12.5736
ltoes -19.2096
111
root -21.4723 17.7644 -17.5032 -354.765 361.721 -372.73
lowerback 3.7932 0.0371728 10.2206
upperback 10.7759 -0.35988 3.17314
thorax 9.41572 0.520881 -2.29763
lowerneck -8.94233 3.75333 1.40486
upperneck -0.911194 4.95651 -4.03579
head 1.37761 2.39789 -1.3129
rclavicle -9.93923e-015 -5.56597e-015
rhumerus -30.984 7.71522 -92.9553
rradius 75.0112
rwrist -13.0092
rhand -27.217 22.5307
rfingers 7.12502
rthumb -0.629699 -7.44814
lclavicle -9.93923e-015 -5.56597e-015
lhumerus -41.6763 -32.6896 101.669
lradius 81.6897
lwrist -2.48865
lhand -53.2356 -35.3674
lfingers 7.12502
lthumb -25.6914 -7.0812
rfemur -27.8503 -4.37891 27.0867
rtibia 53.1
rfoot -24.0109 19.8044
rtoes -11.3257
lfemur -6.08203 4.64186 -6.46101
ltibia 76.1929
lfoot -0.0585879 11.3933
ltoes -19.9396
112
root -21.4466 17.7084 -17.2978 -354.868 361.601 -372.983
lowerback 3.93576 0.336294 10.6463
upperback 10.7446 0.051566 3.23006
thorax 9.36506 0.752846 -2.4522
lowerneck -8.91255 3.68628 1.69475
upperneck -1.20231 4.8359 -4.31957
head 1.29376 2.33532 -1.46086
rclavicle -4.17448e-015 -3.97569e-016
rhumerus -28.9871 7.73594 -92.9934
rradius 74.7767
rwrist -12.457
rhand -27.3365 22.9927
rfingers 7.12502
rthumb -0.745102 -6.98576
lclavicle -4.17448e-015 -3.97569e-016
lhumerus -42.9439 -31.992 102.14
lradius 81.3914
lwrist -2.9057
lhand -53.6727 -35.559
lfingers 7.12502
lthumb -26.1099 -7.33393
rfemur -27.1497 -4.0063 27.2261
rtibia 53.5038
rfoot -25.2629 19.599
rtoes -12.0391
lfemur -7.94338 5.2212 -6.07412
ltibia 78.4128
lfoot -0.432363 10.1632
ltoes -19.504
113
root -21.4197 17.6544 -17.0934 -354.974 361.547 -373.234
lowerback 4.0609 0.657044 11.1264
upperback 10.702 0.493963 3.24908
thorax 9.32543 1.0066 -2.67592
lowerneck -8.78813 3.58674 2.09361
upperneck -1.51761 4.66128 -4.63053
head 1.18772 2.24629 -1.64088
rclavicle 4.49253e-014 8.84592e-015
rhumerus -27.0668 7.67057 -93.0275
rradius 74.783
rwrist -11.6664
rhand -27.3574 23.3226
rfingers 7.12502
rthumb -0.765274 -6.65572
lclavicle 4.49253e-014 8.84592e-015
lhumerus -44.1902 -31.3345 102.462
lradius 81.1844
lwrist -3.22031
lhand -54.0169 -35.3066
lfingers 7.12502
lthumb -26.4395 -7.13071
rfemur -26.3924 -3.70156 27.3712
rtibia 53.8147
rfoot -26.4586 19.4051
rtoes -12.7938
lfemur -9.82844 5.73389 -5.73187
ltibia 80.3486
lfoot -0.750264 9.03383
ltoes -19.4293
114
root -21.3899 17.6073 -16.8864 -355.055 361.517 -373.442
lowerback 4.14048 0.976397 11.5821
upperback 10.6586 0.931159 3.24169
thorax 9.31821 1.2582 -2.91368
lowerneck -8.74952 3.4825 2.4044
upperneck -1.74902 4.48917 -4.85104
head 1.1171 2.15838 -1.77537
rclavicle 1.31695e-014 -6.75868e-015
rhumerus -25.1455 7.36895 -93.097
rradius 74.9072
rwrist -10.4961
rhand -27.25 23.9552
rfingers 7.12502
rthumb -0.661527 -6.0235
lclavicle 1.31695e-014 -6.75868e-015
lhumerus -45.2159 -30.6436 102.617
lradius 80.907
lwrist -3.16386
lhand -54.0927 -35.0859
lfingers 7.12502
lthumb -26.512 -6.92094
rfemur -25.6016 -3.43352 27.4691
rtibia 54.0096
rfoot -27.6026 19.1761
rtoes -13.696
lfemur -11.7769 6.26742 -5.46328
ltibia 82.0991
lfoot -1.72588 7.97127
ltoes -20.2106
115
root -21.3564 17.5691 -16.677 -355.15 361.564 -373.625
lowerback 4.21458 1.29784 12.06
upperback 10.6039 1.37408 3.20753
thorax 9.31274 1.51544 -3.19136
lowerneck -8.95379 3.31099 2.55864
upperneck -1.65436 4.24645 -4.90044
head 1.17996 2.03209 -1.82603
rclavicle 2.27608e-014 -9.74045e-015
rhumerus -23.2619 6.83303 -93.2089
rradius 75.1013
rwrist -9.15598
rhand -27.0775 24.8086
rfingers 7.12502
rthumb -0.494908 -5.17053
lclavicle 2.27608e-014 -9.74045e-015
lhumerus -46.0799 -30.127 102.723
lradius 80.4513
lwrist -2.7272
lhand -54.1097 -34.6065
lfingers 7.12502
lthumb -26.5283 -6.44392
rfemur -24.7075 -3.22999 27.5418
rtibia 54.0429
rfoot -28.6265 18.9315
rtoes -14.5158
lfemur -13.7728 6.77044 -5.25639
ltibia 83.6568
lfoot -3.18029 7.25517
ltoes -21.0015
